<svg width="40" height="40" viewBox="0 0 40 40" fill="none" xmlns="http://www.w3.org/2000/svg">
<path fill-rule="evenodd" clip-rule="evenodd" d="M27 20C27 22.3159 26.8622 24.54 26.6088 26.6088C34.407 25.6536 40 23.0554 40 20C40 16.9446 34.407 14.3464 26.6088 13.3912C26.8622 15.46 27 17.684 27 20ZM11.3561 26.3142C11.1251 24.3294 11 22.2064 11 20C11 17.7935 11.1251 15.6706 11.3561 13.6857C4.63818 14.8144 -1.67257e-07 17.2176 -2.8888e-07 20C-4.10502e-07 22.7824 4.63818 25.1856 11.3561 26.3142Z" fill="black"/>
<path fill-rule="evenodd" clip-rule="evenodd" d="M20 0C19.6605 0 19.3267 0.0690651 19 0.202541C16.3875 1.27024 14.2404 6.45958 13.3912 13.3912C13.1378 15.46 13 17.684 13 20C13 22.316 13.1378 24.54 13.3912 26.6088C14.2402 33.5404 16.3875 38.7298 19 39.7975C19.3267 39.9309 19.6605 40 20 40C23.0554 40 25.6536 34.407 26.6088 26.6088C26.8622 24.54 27 22.316 27 20C27 17.684 26.8622 15.46 26.6088 13.3912C25.6536 5.59304 23.0554 0 20 0Z" fill="#15161A"/>
</svg>
