<svg width="280" height="36" viewBox="0 0 280 36" fill="none" xmlns="http://www.w3.org/2000/svg">
<path d="M272.544 23.612H268.152L267.468 6.79999H273.228L272.544 23.612ZM267.432 26.096H273.336V32H267.432V26.096Z" fill="black"/>
<path d="M242.562 32V4.31598H248.322V18.896H249.186L253.65 12.56H259.662L253.434 21.056C254.754 22.304 255.942 23.816 256.998 25.592C258.054 27.368 259.11 29.504 260.166 32H254.73C253.674 29.696 252.786 27.944 252.066 26.744C251.37 25.52 250.458 24.404 249.33 23.396H248.322V32H242.562Z" fill="black"/>
<path d="M239.672 31.352C237.824 32.096 235.928 32.468 233.984 32.468C231.944 32.468 230.06 32.06 228.332 31.244C226.628 30.404 225.272 29.228 224.264 27.716C223.256 26.18 222.752 24.416 222.752 22.424C222.752 20.336 223.232 18.512 224.192 16.952C225.152 15.392 226.46 14.204 228.116 13.388C229.796 12.548 231.668 12.128 233.732 12.128C235.604 12.128 237.5 12.464 239.42 13.136V17.564C237.956 16.94 236.456 16.628 234.92 16.628C233.024 16.628 231.452 17.084 230.204 17.996C228.956 18.884 228.332 20.36 228.332 22.424C228.332 23.6 228.656 24.596 229.304 25.412C229.952 26.228 230.792 26.852 231.824 27.284C232.856 27.692 233.948 27.896 235.1 27.896C235.988 27.896 236.828 27.776 237.62 27.536C238.436 27.272 239.12 26.912 239.672 26.456V31.352Z" fill="black"/>
<path d="M209.463 32.468C207.639 32.468 206.043 32.036 204.675 31.172C203.331 30.308 202.287 29.12 201.543 27.608C200.823 26.096 200.463 24.332 200.463 22.316C200.463 20.324 200.823 18.56 201.543 17.024C202.287 15.464 203.319 14.252 204.639 13.388C205.983 12.524 207.543 12.092 209.319 12.092C210.135 12.092 210.951 12.248 211.767 12.56C212.607 12.848 213.387 13.256 214.107 13.784V12.56H219.867V27.464C219.867 29.408 220.107 30.92 220.587 32H215.187C215.019 31.664 214.875 31.232 214.755 30.704C213.267 31.88 211.503 32.468 209.463 32.468ZM205.971 22.316C205.971 23.42 206.187 24.428 206.619 25.34C207.075 26.252 207.663 26.984 208.383 27.536C209.127 28.064 209.907 28.328 210.723 28.328C211.299 28.328 211.947 28.208 212.667 27.968C213.387 27.704 214.011 27.152 214.539 26.312V18.248C214.011 17.408 213.387 16.868 212.667 16.628C211.971 16.388 211.323 16.268 210.723 16.268C209.907 16.268 209.127 16.532 208.383 17.06C207.663 17.588 207.075 18.32 206.619 19.256C206.187 20.168 205.971 21.188 205.971 22.316Z" fill="black"/>
<path d="M189.442 32.468C187.33 32.468 185.518 31.88 184.006 30.704C183.886 31.232 183.742 31.664 183.574 32H178.174C178.654 30.92 178.894 29.42 178.894 27.5V4.31598H184.654V13.82C185.374 13.268 186.142 12.848 186.958 12.56C187.798 12.272 188.626 12.128 189.442 12.128C191.218 12.128 192.766 12.56 194.086 13.424C195.43 14.288 196.462 15.5 197.182 17.06C197.926 18.596 198.298 20.36 198.298 22.352C198.298 24.32 197.938 26.072 197.218 27.608C196.498 29.144 195.466 30.344 194.122 31.208C192.778 32.048 191.218 32.468 189.442 32.468ZM184.042 26.06C184.546 27.02 185.182 27.644 185.95 27.932C186.718 28.22 187.414 28.364 188.038 28.364C188.854 28.364 189.622 28.1 190.342 27.572C191.086 27.02 191.674 26.288 192.106 25.376C192.562 24.464 192.79 23.456 192.79 22.352C192.79 21.224 192.562 20.192 192.106 19.256C191.674 18.32 191.086 17.588 190.342 17.06C189.622 16.532 188.854 16.268 188.038 16.268C187.414 16.268 186.718 16.424 185.95 16.736C185.182 17.024 184.546 17.636 184.042 18.572V26.06Z" fill="black"/>
<path d="M165.351 30.956C164.439 31.508 163.371 31.916 162.147 32.18C160.947 32.444 159.783 32.576 158.655 32.576C154.815 32.576 151.899 31.664 149.907 29.84C147.939 28.016 146.955 25.46 146.955 22.172C146.955 18.908 147.831 16.412 149.583 14.684C151.359 12.932 153.771 12.056 156.819 12.056C159.843 12.056 162.231 12.932 163.983 14.684C165.759 16.412 166.647 18.908 166.647 22.172C166.647 22.532 166.623 23.048 166.575 23.72H152.571C153.099 26.816 155.127 28.364 158.655 28.364C161.127 28.364 163.359 27.632 165.351 26.168V30.956ZM161.211 19.688C160.899 18.488 160.359 17.6 159.591 17.024C158.823 16.448 157.899 16.16 156.819 16.16C155.811 16.16 154.947 16.46 154.227 17.06C153.531 17.66 153.039 18.536 152.751 19.688H161.211Z" fill="black"/>
<path d="M121.513 12.524V14.576C122.377 13.88 123.337 13.34 124.393 12.956C125.449 12.572 126.517 12.38 127.597 12.38C128.677 12.38 129.613 12.584 130.405 12.992C131.197 13.376 131.821 13.916 132.277 14.612C133.165 13.892 134.137 13.34 135.193 12.956C136.249 12.572 137.317 12.38 138.397 12.38C140.221 12.38 141.625 12.92 142.609 14C143.593 15.08 144.085 16.484 144.085 18.212V32H138.325V19.184C138.325 18.488 138.085 17.924 137.605 17.492C137.149 17.036 136.537 16.808 135.769 16.808C135.433 16.808 135.037 16.88 134.581 17.024C134.125 17.168 133.681 17.36 133.249 17.6C133.273 17.744 133.285 17.948 133.285 18.212V32H127.525V19.184C127.525 18.488 127.285 17.924 126.805 17.492C126.349 17.036 125.737 16.808 124.969 16.808C124.513 16.808 123.949 16.94 123.277 17.204C122.605 17.468 122.017 17.816 121.513 18.248V32H115.753V12.524H121.513Z" fill="black"/>
<path d="M102.687 32.468C100.647 32.468 98.8469 32.048 97.2869 31.208C95.7509 30.368 94.5629 29.18 93.7229 27.644C92.8829 26.084 92.4629 24.248 92.4629 22.136C92.4629 18.896 93.3749 16.412 95.1989 14.684C97.0229 12.956 99.5189 12.092 102.687 12.092C105.831 12.092 108.315 12.956 110.139 14.684C111.963 16.412 112.875 18.896 112.875 22.136C112.875 24.248 112.455 26.084 111.615 27.644C110.775 29.18 109.587 30.368 108.051 31.208C106.515 32.048 104.727 32.468 102.687 32.468ZM98.1509 22.136C98.1509 23.984 98.5709 25.472 99.4109 26.6C100.251 27.728 101.343 28.292 102.687 28.292C104.031 28.292 105.111 27.728 105.927 26.6C106.767 25.472 107.187 23.984 107.187 22.136C107.187 20.216 106.779 18.764 105.963 17.78C105.171 16.772 104.079 16.268 102.687 16.268C101.295 16.268 100.191 16.772 99.3749 17.78C98.5589 18.764 98.1509 20.216 98.1509 22.136Z" fill="black"/>
<path d="M90.293 31.352C88.445 32.096 86.549 32.468 84.605 32.468C82.565 32.468 80.681 32.06 78.953 31.244C77.249 30.404 75.893 29.228 74.885 27.716C73.877 26.18 73.373 24.416 73.373 22.424C73.373 20.336 73.853 18.512 74.813 16.952C75.773 15.392 77.081 14.204 78.737 13.388C80.417 12.548 82.289 12.128 84.353 12.128C86.225 12.128 88.121 12.464 90.041 13.136V17.564C88.577 16.94 87.077 16.628 85.541 16.628C83.645 16.628 82.073 17.084 80.825 17.996C79.577 18.884 78.953 20.36 78.953 22.424C78.953 23.6 79.277 24.596 79.925 25.412C80.573 26.228 81.413 26.852 82.445 27.284C83.477 27.692 84.569 27.896 85.721 27.896C86.609 27.896 87.449 27.776 88.241 27.536C89.057 27.272 89.741 26.912 90.293 26.456V31.352Z" fill="black"/>
<path d="M69.1838 32.288C67.0238 32.288 65.3918 31.688 64.2878 30.488C63.1838 29.264 62.6318 27.476 62.6318 25.124V4.31598H68.3918V23.684C68.3918 24.644 68.4638 25.376 68.6078 25.88C68.7518 26.384 68.9918 26.768 69.3278 27.032C69.5918 27.248 69.8798 27.392 70.1918 27.464C70.5278 27.512 71.1038 27.536 71.9198 27.536V32.288H69.1838Z" fill="black"/>
<path d="M58.4409 30.956C57.5289 31.508 56.4609 31.916 55.2369 32.18C54.0369 32.444 52.8729 32.576 51.7449 32.576C47.9049 32.576 44.9889 31.664 42.9969 29.84C41.0289 28.016 40.0449 25.46 40.0449 22.172C40.0449 18.908 40.9209 16.412 42.6729 14.684C44.4489 12.932 46.8609 12.056 49.9089 12.056C52.9329 12.056 55.3209 12.932 57.0729 14.684C58.8489 16.412 59.7369 18.908 59.7369 22.172C59.7369 22.532 59.7129 23.048 59.6649 23.72H45.6609C46.1889 26.816 48.2169 28.364 51.7449 28.364C54.2169 28.364 56.4489 27.632 58.4409 26.168V30.956ZM54.3009 19.688C53.9889 18.488 53.4489 17.6 52.6809 17.024C51.9129 16.448 50.9889 16.16 49.9089 16.16C48.9009 16.16 48.0369 16.46 47.3169 17.06C46.6209 17.66 46.1289 18.536 45.8409 19.688H54.3009Z" fill="black"/>
<path d="M23.3645 15.692H23.2205L20.3765 32H13.1405L7.02051 6.79999H13.2125L16.8125 25.808H16.9565L20.5565 6.79999H25.9925L29.5925 25.808H29.7365L33.3365 6.79999H39.5285L33.4085 32H26.1725L23.3645 15.692Z" fill="black"/>
</svg>
